<?xml version="1.0" standalone="no"?>
<svg xmlns="http://www.w3.org/2000/svg" width="300" height="300"><defs><clipPath id="clip-path-dot-color"><circle cx="10" cy="120" r="5" transform="rotate(0,10,120)"/><path d="M 5 145v 10h 5a 5 5, 0, 0, 0, 0 -10" transform="rotate(180,10,150)"/><path d="M 5 165v 10h 10a 10 10, 0, 0, 0, -10 -10" transform="rotate(-90,10,170)"/><rect x="5" y="175" width="10" height="10" transform="rotate(0,10,180)"/><rect x="5" y="185" width="10" height="10" transform="rotate(0,10,190)"/><rect x="5" y="195" width="10" height="10" transform="rotate(0,10,200)"/><path d="M 5 205v 10h 5a 5 5, 0, 0, 0, 0 -10" transform="rotate(90,10,210)"/><path d="M 15 105v 10h 5a 5 5, 0, 0, 0, 0 -10" transform="rotate(180,20,110)"/><rect x="15" y="145" width="10" height="10" transform="rotate(0,20,150)"/><path d="M 15 165v 10h 5a 5 5, 0, 0, 0, 0 -10" transform="rotate(0,20,170)"/><path d="M 15 195v 10h 5a 5 5, 0, 0, 0, 0 -10" transform="rotate(0,20,200)"/><path d="M 25 85v 10h 5a 5 5, 0, 0, 0, 0 -10" transform="rotate(-90,30,90)"/><rect x="25" y="95" width="10" height="10" transform="rotate(0,30,100)"/><rect x="25" y="105" width="10" height="10" transform="rotate(0,30,110)"/><path d="M 25 115v 10h 10a 10 10, 0, 0, 0, -10 -10" transform="rotate(180,30,120)"/><rect x="25" y="145" width="10" height="10" transform="rotate(0,30,150)"/><path d="M 25 155v 10h 5a 5 5, 0, 0, 0, 0 -10" transform="rotate(90,30,160)"/><path d="M 25 175v 10h 5a 5 5, 0, 0, 0, 0 -10" transform="rotate(-90,30,180)"/><path d="M 25 185v 10h 10a 10 10, 0, 0, 0, -10 -10" transform="rotate(180,30,190)"/><circle cx="30" cy="210" r="5" transform="rotate(0,30,210)"/><path d="M 35 115v 10h 10a 10 10, 0, 0, 0, -10 -10" transform="rotate(0,40,120)"/><path d="M 35 125v 10h 5a 5 5, 0, 0, 0, 0 -10" transform="rotate(90,40,130)"/><path d="M 35 145v 10h 5a 5 5, 0, 0, 0, 0 -10" transform="rotate(0,40,150)"/><path d="M 35 165v 10h 5a 5 5, 0, 0, 0, 0 -10" transform="rotate(180,40,170)"/><rect x="35" y="185" width="10" height="10" transform="rotate(0,40,190)"/><path d="M 35 195v 10h 5a 5 5, 0, 0, 0, 0 -10" transform="rotate(90,40,200)"/><path d="M 45 85v 10h 10a 10 10, 0, 0, 0, -10 -10" transform="rotate(-90,50,90)"/><path d="M 45 95v 10h 5a 5 5, 0, 0, 0, 0 -10" transform="rotate(90,50,100)"/><path d="M 45 135v 10h 5a 5 5, 0, 0, 0, 0 -10" transform="rotate(180,50,140)"/><rect x="45" y="165" width="10" height="10" transform="rotate(0,50,170)"/><rect x="45" y="175" width="10" height="10" transform="rotate(0,50,180)"/><path d="M 45 185v 10h 10a 10 10, 0, 0, 0, -10 -10" transform="rotate(90,50,190)"/><path d="M 45 205v 10h 5a 5 5, 0, 0, 0, 0 -10" transform="rotate(180,50,210)"/><rect x="55" y="85" width="10" height="10" transform="rotate(0,60,90)"/><path d="M 55 135v 10h 10a 10 10, 0, 0, 0, -10 -10" transform="rotate(0,60,140)"/><rect x="55" y="145" width="10" height="10" transform="rotate(0,60,150)"/><rect x="55" y="155" width="10" height="10" transform="rotate(0,60,160)"/><rect x="55" y="165" width="10" height="10" transform="rotate(0,60,170)"/><path d="M 55 175v 10h 10a 10 10, 0, 0, 0, -10 -10" transform="rotate(90,60,180)"/><path d="M 55 195v 10h 5a 5 5, 0, 0, 0, 0 -10" transform="rotate(-90,60,200)"/><rect x="55" y="205" width="10" height="10" transform="rotate(0,60,210)"/><path d="M 65 85v 10h 5a 5 5, 0, 0, 0, 0 -10" transform="rotate(0,70,90)"/><path d="M 65 105v 10h 5a 5 5, 0, 0, 0, 0 -10" transform="rotate(180,70,110)"/><path d="M 65 125v 10h 5a 5 5, 0, 0, 0, 0 -10" transform="rotate(180,70,130)"/><rect x="65" y="145" width="10" height="10" transform="rotate(0,70,150)"/><rect x="65" y="165" width="10" height="10" transform="rotate(0,70,170)"/><circle cx="70" cy="190" r="5" transform="rotate(0,70,190)"/><path d="M 65 205v 10h 5a 5 5, 0, 0, 0, 0 -10" transform="rotate(0,70,210)"/><path d="M 75 105v 10h 10a 10 10, 0, 0, 0, -10 -10" transform="rotate(0,80,110)"/><rect x="75" y="115" width="10" height="10" transform="rotate(0,80,120)"/><path d="M 75 125v 10h 10a 10 10, 0, 0, 0, -10 -10" transform="rotate(90,80,130)"/><rect x="75" y="145" width="10" height="10" transform="rotate(0,80,150)"/><rect x="75" y="155" width="10" height="10" transform="rotate(0,80,160)"/><rect x="75" y="165" width="10" height="10" transform="rotate(0,80,170)"/><path d="M 75 195v 10h 5a 5 5, 0, 0, 0, 0 -10" transform="rotate(180,80,200)"/><path d="M 85 15v 10h 5a 5 5, 0, 0, 0, 0 -10" transform="rotate(180,90,20)"/><path d="M 85 45v 10h 5a 5 5, 0, 0, 0, 0 -10" transform="rotate(180,90,50)"/><circle cx="90" cy="70" r="5" transform="rotate(0,90,70)"/><path d="M 85 85v 10h 5a 5 5, 0, 0, 0, 0 -10" transform="rotate(-90,90,90)"/><path d="M 85 95v 10h 10a 10 10, 0, 0, 0, -10 -10" transform="rotate(180,90,100)"/><path d="M 85 135v 10h 5a 5 5, 0, 0, 0, 0 -10" transform="rotate(-90,90,140)"/><path d="M 85 145v 10h 10a 10 10, 0, 0, 0, -10 -10" transform="rotate(90,90,150)"/><path d="M 85 165v 10h 5a 5 5, 0, 0, 0, 0 -10" transform="rotate(0,90,170)"/><path d="M 85 195v 10h 10a 10 10, 0, 0, 0, -10 -10" transform="rotate(0,90,200)"/><rect x="85" y="205" width="10" height="10" transform="rotate(0,90,210)"/><path d="M 85 215v 10h 5a 5 5, 0, 0, 0, 0 -10" transform="rotate(90,90,220)"/><path d="M 85 235v 10h 10a 10 10, 0, 0, 0, -10 -10" transform="rotate(-90,90,240)"/><path d="M 85 245v 10h 10a 10 10, 0, 0, 0, -10 -10" transform="rotate(180,90,250)"/><path d="M 85 265v 10h 5a 5 5, 0, 0, 0, 0 -10" transform="rotate(180,90,270)"/><path d="M 95 5v 10h 10a 10 10, 0, 0, 0, -10 -10" transform="rotate(-90,100,10)"/><path d="M 95 15v 10h 10a 10 10, 0, 0, 0, -10 -10" transform="rotate(90,100,20)"/><rect x="95" y="45" width="10" height="10" transform="rotate(0,100,50)"/><path d="M 95 55v 10h 10a 10 10, 0, 0, 0, -10 -10" transform="rotate(180,100,60)"/><rect x="95" y="95" width="10" height="10" transform="rotate(0,100,100)"/><path d="M 95 105v 10h 5a 5 5, 0, 0, 0, 0 -10" transform="rotate(90,100,110)"/><circle cx="100" cy="190" r="5" transform="rotate(0,100,190)"/><path d="M 95 225v 10h 5a 5 5, 0, 0, 0, 0 -10" transform="rotate(-90,100,230)"/><rect x="95" y="235" width="10" height="10" transform="rotate(0,100,240)"/><rect x="95" y="245" width="10" height="10" transform="rotate(0,100,250)"/><path d="M 95 265v 10h 10a 10 10, 0, 0, 0, -10 -10" transform="rotate(0,100,270)"/><rect x="95" y="275" width="10" height="10" transform="rotate(0,100,280)"/><path d="M 95 285v 10h 10a 10 10, 0, 0, 0, -10 -10" transform="rotate(180,100,290)"/><path d="M 105 5v 10h 5a 5 5, 0, 0, 0, 0 -10" transform="rotate(0,110,10)"/><path d="M 105 25v 10h 5a 5 5, 0, 0, 0, 0 -10" transform="rotate(180,110,30)"/><path d="M 105 45v 10h 10a 10 10, 0, 0, 0, -10 -10" transform="rotate(0,110,50)"/><rect x="105" y="55" width="10" height="10" transform="rotate(0,110,60)"/><path d="M 105 65v 10h 5a 5 5, 0, 0, 0, 0 -10" transform="rotate(90,110,70)"/><path d="M 105 85v 10h 10a 10 10, 0, 0, 0, -10 -10" transform="rotate(-90,110,90)"/><path d="M 105 95v 10h 10a 10 10, 0, 0, 0, -10 -10" transform="rotate(90,110,100)"/><circle cx="110" cy="120" r="5" transform="rotate(0,110,120)"/><path d="M 105 145v 10h 5a 5 5, 0, 0, 0, 0 -10" transform="rotate(-90,110,150)"/><rect x="105" y="155" width="10" height="10" transform="rotate(0,110,160)"/><path d="M 105 165v 10h 10a 10 10, 0, 0, 0, -10 -10" transform="rotate(180,110,170)"/><path d="M 105 205v 10h 10a 10 10, 0, 0, 0, -10 -10" transform="rotate(-90,110,210)"/><path d="M 105 215v 10h 10a 10 10, 0, 0, 0, -10 -10" transform="rotate(180,110,220)"/><path d="M 105 235v 10h 10a 10 10, 0, 0, 0, -10 -10" transform="rotate(0,110,240)"/><rect x="105" y="245" width="10" height="10" transform="rotate(0,110,250)"/><rect x="105" y="285" width="10" height="10" transform="rotate(0,110,290)"/><path d="M 115 25v 10h 5a 5 5, 0, 0, 0, 0 -10" transform="rotate(0,120,30)"/><path d="M 115 75v 10h 10a 10 10, 0, 0, 0, -10 -10" transform="rotate(-90,120,80)"/><rect x="115" y="85" width="10" height="10" transform="rotate(0,120,90)"/><path d="M 115 105v 10h 5a 5 5, 0, 0, 0, 0 -10" transform="rotate(180,120,110)"/><path d="M 115 135v 10h 5a 5 5, 0, 0, 0, 0 -10" transform="rotate(180,120,140)"/><path d="M 115 155v 10h 10a 10 10, 0, 0, 0, -10 -10" transform="rotate(0,120,160)"/><rect x="115" y="165" width="10" height="10" transform="rotate(0,120,170)"/><rect x="115" y="175" width="10" height="10" transform="rotate(0,120,180)"/><rect x="115" y="185" width="10" height="10" transform="rotate(0,120,190)"/><rect x="115" y="195" width="10" height="10" transform="rotate(0,120,200)"/><rect x="115" y="205" width="10" height="10" transform="rotate(0,120,210)"/><path d="M 115 215v 10h 10a 10 10, 0, 0, 0, -10 -10" transform="rotate(90,120,220)"/><path d="M 115 245v 10h 10a 10 10, 0, 0, 0, -10 -10" transform="rotate(0,120,250)"/><path d="M 115 255v 10h 5a 5 5, 0, 0, 0, 0 -10" transform="rotate(90,120,260)"/><path d="M 115 275v 10h 5a 5 5, 0, 0, 0, 0 -10" transform="rotate(-90,120,280)"/><rect x="115" y="285" width="10" height="10" transform="rotate(0,120,290)"/><circle cx="130" cy="20" r="5" transform="rotate(0,130,20)"/><path d="M 125 45v 10h 5a 5 5, 0, 0, 0, 0 -10" transform="rotate(-90,130,50)"/><rect x="125" y="55" width="10" height="10" transform="rotate(0,130,60)"/><rect x="125" y="65" width="10" height="10" transform="rotate(0,130,70)"/><rect x="125" y="75" width="10" height="10" transform="rotate(0,130,80)"/><path d="M 125 85v 10h 10a 10 10, 0, 0, 0, -10 -10" transform="rotate(90,130,90)"/><path d="M 125 105v 10h 10a 10 10, 0, 0, 0, -10 -10" transform="rotate(0,130,110)"/><rect x="125" y="115" width="10" height="10" transform="rotate(0,130,120)"/><rect x="125" y="125" width="10" height="10" transform="rotate(0,130,130)"/><rect x="125" y="135" width="10" height="10" transform="rotate(0,130,140)"/><path d="M 125 145v 10h 5a 5 5, 0, 0, 0, 0 -10" transform="rotate(90,130,150)"/><path d="M 125 165v 10h 10a 10 10, 0, 0, 0, -10 -10" transform="rotate(0,130,170)"/><path d="M 125 175v 10h 10a 10 10, 0, 0, 0, -10 -10" transform="rotate(90,130,180)"/><circle cx="130" cy="240" r="5" transform="rotate(0,130,240)"/><rect x="125" y="285" width="10" height="10" transform="rotate(0,130,290)"/><path d="M 135 5v 10h 5a 5 5, 0, 0, 0, 0 -10" transform="rotate(180,140,10)"/><circle cx="140" cy="30" r="5" transform="rotate(0,140,30)"/><circle cx="140" cy="100" r="5" transform="rotate(0,140,100)"/><rect x="135" y="115" width="10" height="10" transform="rotate(0,140,120)"/><rect x="135" y="125" width="10" height="10" transform="rotate(0,140,130)"/><rect x="135" y="135" width="10" height="10" transform="rotate(0,140,140)"/><circle cx="140" cy="160" r="5" transform="rotate(0,140,160)"/><circle cx="140" cy="190" r="5" transform="rotate(0,140,190)"/><path d="M 135 225v 10h 5a 5 5, 0, 0, 0, 0 -10" transform="rotate(180,140,230)"/><path d="M 135 245v 10h 5a 5 5, 0, 0, 0, 0 -10" transform="rotate(180,140,250)"/><path d="M 135 265v 10h 5a 5 5, 0, 0, 0, 0 -10" transform="rotate(-90,140,270)"/><rect x="135" y="275" width="10" height="10" transform="rotate(0,140,280)"/><rect x="135" y="285" width="10" height="10" transform="rotate(0,140,290)"/><path d="M 145 5v 10h 10a 10 10, 0, 0, 0, -10 -10" transform="rotate(0,150,10)"/><path d="M 145 15v 10h 5a 5 5, 0, 0, 0, 0 -10" transform="rotate(90,150,20)"/><circle cx="150" cy="40" r="5" transform="rotate(0,150,40)"/><path d="M 145 55v 10h 5a 5 5, 0, 0, 0, 0 -10" transform="rotate(-90,150,60)"/><path d="M 145 65v 10h 5a 5 5, 0, 0, 0, 0 -10" transform="rotate(90,150,70)"/><path d="M 145 85v 10h 5a 5 5, 0, 0, 0, 0 -10" transform="rotate(180,150,90)"/><rect x="145" y="115" width="10" height="10" transform="rotate(0,150,120)"/><path d="M 145 135v 10h 10a 10 10, 0, 0, 0, -10 -10" transform="rotate(0,150,140)"/><path d="M 145 145v 10h 5a 5 5, 0, 0, 0, 0 -10" transform="rotate(90,150,150)"/><path d="M 145 175v 10h 5a 5 5, 0, 0, 0, 0 -10" transform="rotate(180,150,180)"/><circle cx="150" cy="210" r="5" transform="rotate(0,150,210)"/><path d="M 145 225v 10h 5a 5 5, 0, 0, 0, 0 -10" transform="rotate(0,150,230)"/><path d="M 145 245v 10h 5a 5 5, 0, 0, 0, 0 -10" transform="rotate(0,150,250)"/><path d="M 145 285v 10h 5a 5 5, 0, 0, 0, 0 -10" transform="rotate(0,150,290)"/><path d="M 155 25v 10h 5a 5 5, 0, 0, 0, 0 -10" transform="rotate(180,160,30)"/><path d="M 155 85v 10h 5a 5 5, 0, 0, 0, 0 -10" transform="rotate(0,160,90)"/><path d="M 155 105v 10h 5a 5 5, 0, 0, 0, 0 -10" transform="rotate(-90,160,110)"/><rect x="155" y="115" width="10" height="10" transform="rotate(0,160,120)"/><path d="M 155 125v 10h 5a 5 5, 0, 0, 0, 0 -10" transform="rotate(90,160,130)"/><circle cx="160" cy="160" r="5" transform="rotate(0,160,160)"/><path d="M 155 175v 10h 10a 10 10, 0, 0, 0, -10 -10" transform="rotate(0,160,180)"/><path d="M 155 185v 10h 10a 10 10, 0, 0, 0, -10 -10" transform="rotate(180,160,190)"/><circle cx="160" cy="240" r="5" transform="rotate(0,160,240)"/><circle cx="160" cy="260" r="5" transform="rotate(0,160,260)"/><path d="M 165 15v 10h 10a 10 10, 0, 0, 0, -10 -10" transform="rotate(-90,170,20)"/><path d="M 165 25v 10h 10a 10 10, 0, 0, 0, -10 -10" transform="rotate(90,170,30)"/><path d="M 165 65v 10h 5a 5 5, 0, 0, 0, 0 -10" transform="rotate(-90,170,70)"/><path d="M 165 75v 10h 10a 10 10, 0, 0, 0, -10 -10" transform="rotate(180,170,80)"/><circle cx="170" cy="100" r="5" transform="rotate(0,170,100)"/><path d="M 165 135v 10h 5a 5 5, 0, 0, 0, 0 -10" transform="rotate(180,170,140)"/><path d="M 165 185v 10h 10a 10 10, 0, 0, 0, -10 -10" transform="rotate(0,170,190)"/><rect x="165" y="195" width="10" height="10" transform="rotate(0,170,200)"/><path d="M 165 205v 10h 5a 5 5, 0, 0, 0, 0 -10" transform="rotate(90,170,210)"/><path d="M 175 5v 10h 5a 5 5, 0, 0, 0, 0 -10" transform="rotate(-90,180,10)"/><path d="M 175 15v 10h 10a 10 10, 0, 0, 0, -10 -10" transform="rotate(90,180,20)"/><path d="M 175 45v 10h 10a 10 10, 0, 0, 0, -10 -10" transform="rotate(-90,180,50)"/><path d="M 175 55v 10h 10a 10 10, 0, 0, 0, -10 -10" transform="rotate(180,180,60)"/><path d="M 175 75v 10h 5a 5 5, 0, 0, 0, 0 -10" transform="rotate(0,180,80)"/><path d="M 175 105v 10h 10a 10 10, 0, 0, 0, -10 -10" transform="rotate(-90,180,110)"/><path d="M 175 115v 10h 5a 5 5, 0, 0, 0, 0 -10" transform="rotate(90,180,120)"/><rect x="175" y="135" width="10" height="10" transform="rotate(0,180,140)"/><path d="M 175 145v 10h 5a 5 5, 0, 0, 0, 0 -10" transform="rotate(90,180,150)"/><path d="M 175 165v 10h 10a 10 10, 0, 0, 0, -10 -10" transform="rotate(-90,180,170)"/><path d="M 175 175v 10h 5a 5 5, 0, 0, 0, 0 -10" transform="rotate(90,180,180)"/><path d="M 175 225v 10h 5a 5 5, 0, 0, 0, 0 -10" transform="rotate(-90,180,230)"/><rect x="175" y="235" width="10" height="10" transform="rotate(0,180,240)"/><rect x="175" y="245" width="10" height="10" transform="rotate(0,180,250)"/><path d="M 175 255v 10h 10a 10 10, 0, 0, 0, -10 -10" transform="rotate(180,180,260)"/><path d="M 175 285v 10h 5a 5 5, 0, 0, 0, 0 -10" transform="rotate(180,180,290)"/><path d="M 185 35v 10h 10a 10 10, 0, 0, 0, -10 -10" transform="rotate(-90,190,40)"/><rect x="185" y="45" width="10" height="10" transform="rotate(0,190,50)"/><rect x="185" y="55" width="10" height="10" transform="rotate(0,190,60)"/><path d="M 185 65v 10h 5a 5 5, 0, 0, 0, 0 -10" transform="rotate(90,190,70)"/><path d="M 185 85v 10h 10a 10 10, 0, 0, 0, -10 -10" transform="rotate(-90,190,90)"/><rect x="185" y="95" width="10" height="10" transform="rotate(0,190,100)"/><rect x="185" y="105" width="10" height="10" transform="rotate(0,190,110)"/><path d="M 185 125v 10h 5a 5 5, 0, 0, 0, 0 -10" transform="rotate(-90,190,130)"/><rect x="185" y="135" width="10" height="10" transform="rotate(0,190,140)"/><path d="M 185 165v 10h 5a 5 5, 0, 0, 0, 0 -10" transform="rotate(0,190,170)"/><path d="M 185 185v 10h 5a 5 5, 0, 0, 0, 0 -10" transform="rotate(180,190,190)"/><circle cx="190" cy="210" r="5" transform="rotate(0,190,210)"/><rect x="185" y="255" width="10" height="10" transform="rotate(0,190,260)"/><path d="M 185 285v 10h 5a 5 5, 0, 0, 0, 0 -10" transform="rotate(0,190,290)"/><rect x="195" y="35" width="10" height="10" transform="rotate(0,200,40)"/><rect x="195" y="45" width="10" height="10" transform="rotate(0,200,50)"/><rect x="195" y="55" width="10" height="10" transform="rotate(0,200,60)"/><path d="M 195 85v 10h 10a 10 10, 0, 0, 0, -10 -10" transform="rotate(0,200,90)"/><rect x="195" y="95" width="10" height="10" transform="rotate(0,200,100)"/><rect x="195" y="105" width="10" height="10" transform="rotate(0,200,110)"/><path d="M 195 135v 10h 10a 10 10, 0, 0, 0, -10 -10" transform="rotate(0,200,140)"/><path d="M 195 145v 10h 10a 10 10, 0, 0, 0, -10 -10" transform="rotate(180,200,150)"/><path d="M 195 175v 10h 10a 10 10, 0, 0, 0, -10 -10" transform="rotate(-90,200,180)"/><rect x="195" y="185" width="10" height="10" transform="rotate(0,200,190)"/><path d="M 195 195v 10h 10a 10 10, 0, 0, 0, -10 -10" transform="rotate(180,200,200)"/><path d="M 195 235v 10h 10a 10 10, 0, 0, 0, -10 -10" transform="rotate(-90,200,240)"/><rect x="195" y="245" width="10" height="10" transform="rotate(0,200,250)"/><rect x="195" y="255" width="10" height="10" transform="rotate(0,200,260)"/><path d="M 205 5v 10h 5a 5 5, 0, 0, 0, 0 -10" transform="rotate(-90,210,10)"/><path d="M 205 15v 10h 5a 5 5, 0, 0, 0, 0 -10" transform="rotate(90,210,20)"/><path d="M 205 35v 10h 10a 10 10, 0, 0, 0, -10 -10" transform="rotate(0,210,40)"/><rect x="205" y="45" width="10" height="10" transform="rotate(0,210,50)"/><rect x="205" y="55" width="10" height="10" transform="rotate(0,210,60)"/><path d="M 205 65v 10h 5a 5 5, 0, 0, 0, 0 -10" transform="rotate(90,210,70)"/><rect x="205" y="105" width="10" height="10" transform="rotate(0,210,110)"/><rect x="205" y="145" width="10" height="10" transform="rotate(0,210,150)"/><path d="M 205 155v 10h 10a 10 10, 0, 0, 0, -10 -10" transform="rotate(180,210,160)"/><rect x="205" y="175" width="10" height="10" transform="rotate(0,210,180)"/><path d="M 205 195v 10h 10a 10 10, 0, 0, 0, -10 -10" transform="rotate(0,210,200)"/><rect x="205" y="205" width="10" height="10" transform="rotate(0,210,210)"/><rect x="205" y="215" width="10" height="10" transform="rotate(0,210,220)"/><rect x="205" y="225" width="10" height="10" transform="rotate(0,210,230)"/><rect x="205" y="235" width="10" height="10" transform="rotate(0,210,240)"/><rect x="205" y="245" width="10" height="10" transform="rotate(0,210,250)"/><path d="M 205 255v 10h 10a 10 10, 0, 0, 0, -10 -10" transform="rotate(90,210,260)"/><path d="M 205 285v 10h 5a 5 5, 0, 0, 0, 0 -10" transform="rotate(180,210,290)"/><circle cx="220" cy="90" r="5" transform="rotate(0,220,90)"/><path d="M 215 105v 10h 10a 10 10, 0, 0, 0, -10 -10" transform="rotate(0,220,110)"/><path d="M 215 115v 10h 10a 10 10, 0, 0, 0, -10 -10" transform="rotate(180,220,120)"/><path d="M 215 145v 10h 10a 10 10, 0, 0, 0, -10 -10" transform="rotate(0,220,150)"/><rect x="215" y="155" width="10" height="10" transform="rotate(0,220,160)"/><path d="M 215 175v 10h 10a 10 10, 0, 0, 0, -10 -10" transform="rotate(0,220,180)"/><path d="M 215 185v 10h 10a 10 10, 0, 0, 0, -10 -10" transform="rotate(180,220,190)"/><rect x="215" y="205" width="10" height="10" transform="rotate(0,220,210)"/><rect x="215" y="245" width="10" height="10" transform="rotate(0,220,250)"/><path d="M 215 265v 10h 5a 5 5, 0, 0, 0, 0 -10" transform="rotate(-90,220,270)"/><rect x="215" y="275" width="10" height="10" transform="rotate(0,220,280)"/><rect x="215" y="285" width="10" height="10" transform="rotate(0,220,290)"/><path d="M 225 115v 10h 10a 10 10, 0, 0, 0, -10 -10" transform="rotate(0,230,120)"/><rect x="225" y="125" width="10" height="10" transform="rotate(0,230,130)"/><path d="M 225 135v 10h 10a 10 10, 0, 0, 0, -10 -10" transform="rotate(180,230,140)"/><rect x="225" y="155" width="10" height="10" transform="rotate(0,230,160)"/><path d="M 225 185v 10h 10a 10 10, 0, 0, 0, -10 -10" transform="rotate(0,230,190)"/><rect x="225" y="195" width="10" height="10" transform="rotate(0,230,200)"/><rect x="225" y="205" width="10" height="10" transform="rotate(0,230,210)"/><circle cx="230" cy="230" r="5" transform="rotate(0,230,230)"/><rect x="225" y="245" width="10" height="10" transform="rotate(0,230,250)"/><rect x="225" y="285" width="10" height="10" transform="rotate(0,230,290)"/><path d="M 235 95v 10h 5a 5 5, 0, 0, 0, 0 -10" transform="rotate(-90,240,100)"/><path d="M 235 105v 10h 5a 5 5, 0, 0, 0, 0 -10" transform="rotate(90,240,110)"/><path d="M 235 125v 10h 10a 10 10, 0, 0, 0, -10 -10" transform="rotate(0,240,130)"/><rect x="235" y="135" width="10" height="10" transform="rotate(0,240,140)"/><rect x="235" y="145" width="10" height="10" transform="rotate(0,240,150)"/><path d="M 235 155v 10h 10a 10 10, 0, 0, 0, -10 -10" transform="rotate(90,240,160)"/><rect x="235" y="195" width="10" height="10" transform="rotate(0,240,200)"/><rect x="235" y="205" width="10" height="10" transform="rotate(0,240,210)"/><rect x="235" y="245" width="10" height="10" transform="rotate(0,240,250)"/><path d="M 235 255v 10h 5a 5 5, 0, 0, 0, 0 -10" transform="rotate(90,240,260)"/><rect x="235" y="285" width="10" height="10" transform="rotate(0,240,290)"/><circle cx="250" cy="90" r="5" transform="rotate(0,250,90)"/><path d="M 245 115v 10h 5a 5 5, 0, 0, 0, 0 -10" transform="rotate(180,250,120)"/><path d="M 245 135v 10h 10a 10 10, 0, 0, 0, -10 -10" transform="rotate(0,250,140)"/><rect x="245" y="145" width="10" height="10" transform="rotate(0,250,150)"/><circle cx="250" cy="170" r="5" transform="rotate(0,250,170)"/><path d="M 245 195v 10h 10a 10 10, 0, 0, 0, -10 -10" transform="rotate(0,250,200)"/><rect x="245" y="205" width="10" height="10" transform="rotate(0,250,210)"/><rect x="245" y="215" width="10" height="10" transform="rotate(0,250,220)"/><rect x="245" y="225" width="10" height="10" transform="rotate(0,250,230)"/><rect x="245" y="235" width="10" height="10" transform="rotate(0,250,240)"/><path d="M 245 245v 10h 10a 10 10, 0, 0, 0, -10 -10" transform="rotate(90,250,250)"/><path d="M 245 275v 10h 10a 10 10, 0, 0, 0, -10 -10" transform="rotate(-90,250,280)"/><path d="M 245 285v 10h 10a 10 10, 0, 0, 0, -10 -10" transform="rotate(90,250,290)"/><path d="M 255 105v 10h 5a 5 5, 0, 0, 0, 0 -10" transform="rotate(-90,260,110)"/><rect x="255" y="115" width="10" height="10" transform="rotate(0,260,120)"/><path d="M 255 125v 10h 10a 10 10, 0, 0, 0, -10 -10" transform="rotate(180,260,130)"/><rect x="255" y="145" width="10" height="10" transform="rotate(0,260,150)"/><path d="M 255 185v 10h 5a 5 5, 0, 0, 0, 0 -10" transform="rotate(180,260,190)"/><path d="M 255 235v 10h 5a 5 5, 0, 0, 0, 0 -10" transform="rotate(0,260,240)"/><rect x="255" y="275" width="10" height="10" transform="rotate(0,260,280)"/><path d="M 265 95v 10h 5a 5 5, 0, 0, 0, 0 -10" transform="rotate(180,270,100)"/><rect x="265" y="125" width="10" height="10" transform="rotate(0,270,130)"/><rect x="265" y="135" width="10" height="10" transform="rotate(0,270,140)"/><rect x="265" y="145" width="10" height="10" transform="rotate(0,270,150)"/><path d="M 265 155v 10h 10a 10 10, 0, 0, 0, -10 -10" transform="rotate(180,270,160)"/><path d="M 265 175v 10h 10a 10 10, 0, 0, 0, -10 -10" transform="rotate(-90,270,180)"/><rect x="265" y="185" width="10" height="10" transform="rotate(0,270,190)"/><rect x="265" y="195" width="10" height="10" transform="rotate(0,270,200)"/><rect x="265" y="205" width="10" height="10" transform="rotate(0,270,210)"/><path d="M 265 215v 10h 5a 5 5, 0, 0, 0, 0 -10" transform="rotate(90,270,220)"/><rect x="265" y="275" width="10" height="10" transform="rotate(0,270,280)"/><path d="M 265 285v 10h 10a 10 10, 0, 0, 0, -10 -10" transform="rotate(180,270,290)"/><path d="M 275 85v 10h 5a 5 5, 0, 0, 0, 0 -10" transform="rotate(-90,280,90)"/><rect x="275" y="95" width="10" height="10" transform="rotate(0,280,100)"/><path d="M 275 125v 10h 5a 5 5, 0, 0, 0, 0 -10" transform="rotate(0,280,130)"/><path d="M 275 155v 10h 10a 10 10, 0, 0, 0, -10 -10" transform="rotate(0,280,160)"/><rect x="275" y="165" width="10" height="10" transform="rotate(0,280,170)"/><rect x="275" y="175" width="10" height="10" transform="rotate(0,280,180)"/><rect x="275" y="205" width="10" height="10" transform="rotate(0,280,210)"/><circle cx="280" cy="240" r="5" transform="rotate(0,280,240)"/><path d="M 275 255v 10h 5a 5 5, 0, 0, 0, 0 -10" transform="rotate(180,280,260)"/><rect x="275" y="275" width="10" height="10" transform="rotate(0,280,280)"/><path d="M 275 285v 10h 10a 10 10, 0, 0, 0, -10 -10" transform="rotate(90,280,290)"/><path d="M 285 95v 10h 5a 5 5, 0, 0, 0, 0 -10" transform="rotate(0,290,100)"/><circle cx="290" cy="120" r="5" transform="rotate(0,290,120)"/><circle cx="290" cy="140" r="5" transform="rotate(0,290,140)"/><path d="M 285 175v 10h 5a 5 5, 0, 0, 0, 0 -10" transform="rotate(0,290,180)"/><path d="M 285 205v 10h 5a 5 5, 0, 0, 0, 0 -10" transform="rotate(0,290,210)"/><circle cx="290" cy="230" r="5" transform="rotate(0,290,230)"/><path d="M 285 245v 10h 5a 5 5, 0, 0, 0, 0 -10" transform="rotate(-90,290,250)"/><path d="M 285 255v 10h 10a 10 10, 0, 0, 0, -10 -10" transform="rotate(90,290,260)"/><path d="M 285 275v 10h 5a 5 5, 0, 0, 0, 0 -10" transform="rotate(0,290,280)"/></clipPath><clipPath id="clip-path-corners-square-color-0-0"><path clip-rule="evenodd" d="M 5 30v 20a 25 25, 0, 0, 0, 25 25h 20a 25 25, 0, 0, 0, 25 -25v -20a 25 25, 0, 0, 0, -25 -25h -20a 25 25, 0, 0, 0, -25 25M 30 15h 20a 15 15, 0, 0, 1, 15 15v 20a 15 15, 0, 0, 1, -15 15h -20a 15 15, 0, 0, 1, -15 -15v -20a 15 15, 0, 0, 1, 15 -15" transform="rotate(0,40,40)"/></clipPath><clipPath id="clip-path-corners-dot-color-0-0"><path d="M 25 25v 10h 10a 10 10, 0, 0, 0, -10 -10" transform="rotate(-90,30,30)"/><rect x="25" y="35" width="10" height="10" transform="rotate(0,30,40)"/><path d="M 25 45v 10h 10a 10 10, 0, 0, 0, -10 -10" transform="rotate(180,30,50)"/><rect x="35" y="25" width="10" height="10" transform="rotate(0,40,30)"/><rect x="35" y="35" width="10" height="10" transform="rotate(0,40,40)"/><rect x="35" y="45" width="10" height="10" transform="rotate(0,40,50)"/><path d="M 45 25v 10h 10a 10 10, 0, 0, 0, -10 -10" transform="rotate(0,50,30)"/><rect x="45" y="35" width="10" height="10" transform="rotate(0,50,40)"/><path d="M 45 45v 10h 10a 10 10, 0, 0, 0, -10 -10" transform="rotate(90,50,50)"/></clipPath><clipPath id="clip-path-corners-square-color-1-0"><path clip-rule="evenodd" d="M 225 30v 20a 25 25, 0, 0, 0, 25 25h 20a 25 25, 0, 0, 0, 25 -25v -20a 25 25, 0, 0, 0, -25 -25h -20a 25 25, 0, 0, 0, -25 25M 250 15h 20a 15 15, 0, 0, 1, 15 15v 20a 15 15, 0, 0, 1, -15 15h -20a 15 15, 0, 0, 1, -15 -15v -20a 15 15, 0, 0, 1, 15 -15" transform="rotate(90,260,40)"/></clipPath><clipPath id="clip-path-corners-dot-color-1-0"><path d="M 245 25v 10h 10a 10 10, 0, 0, 0, -10 -10" transform="rotate(-90,250,30)"/><rect x="245" y="35" width="10" height="10" transform="rotate(0,250,40)"/><path d="M 245 45v 10h 10a 10 10, 0, 0, 0, -10 -10" transform="rotate(180,250,50)"/><rect x="255" y="25" width="10" height="10" transform="rotate(0,260,30)"/><rect x="255" y="35" width="10" height="10" transform="rotate(0,260,40)"/><rect x="255" y="45" width="10" height="10" transform="rotate(0,260,50)"/><path d="M 265 25v 10h 10a 10 10, 0, 0, 0, -10 -10" transform="rotate(0,270,30)"/><rect x="265" y="35" width="10" height="10" transform="rotate(0,270,40)"/><path d="M 265 45v 10h 10a 10 10, 0, 0, 0, -10 -10" transform="rotate(90,270,50)"/></clipPath><clipPath id="clip-path-corners-square-color-0-1"><path clip-rule="evenodd" d="M 5 250v 20a 25 25, 0, 0, 0, 25 25h 20a 25 25, 0, 0, 0, 25 -25v -20a 25 25, 0, 0, 0, -25 -25h -20a 25 25, 0, 0, 0, -25 25M 30 235h 20a 15 15, 0, 0, 1, 15 15v 20a 15 15, 0, 0, 1, -15 15h -20a 15 15, 0, 0, 1, -15 -15v -20a 15 15, 0, 0, 1, 15 -15" transform="rotate(-90,40,260)"/></clipPath><clipPath id="clip-path-corners-dot-color-0-1"><path d="M 25 245v 10h 10a 10 10, 0, 0, 0, -10 -10" transform="rotate(-90,30,250)"/><rect x="25" y="255" width="10" height="10" transform="rotate(0,30,260)"/><path d="M 25 265v 10h 10a 10 10, 0, 0, 0, -10 -10" transform="rotate(180,30,270)"/><rect x="35" y="245" width="10" height="10" transform="rotate(0,40,250)"/><rect x="35" y="255" width="10" height="10" transform="rotate(0,40,260)"/><rect x="35" y="265" width="10" height="10" transform="rotate(0,40,270)"/><path d="M 45 245v 10h 10a 10 10, 0, 0, 0, -10 -10" transform="rotate(0,50,250)"/><rect x="45" y="255" width="10" height="10" transform="rotate(0,50,260)"/><path d="M 45 265v 10h 10a 10 10, 0, 0, 0, -10 -10" transform="rotate(90,50,270)"/></clipPath></defs><rect x="0" y="0" height="300" width="300" clip-path="url('#clip-path-background-color')" fill="#ffffff"/><rect x="5" y="5" height="290" width="290" clip-path="url('#clip-path-dot-color')" fill="#6a1a4c"/><rect x="5" y="5" height="70" width="70" clip-path="url('#clip-path-corners-square-color-0-0')" fill="#000000"/><rect x="25" y="25" height="30" width="30" clip-path="url('#clip-path-corners-dot-color-0-0')" fill="#000000"/><rect x="225" y="5" height="70" width="70" clip-path="url('#clip-path-corners-square-color-1-0')" fill="#000000"/><rect x="245" y="25" height="30" width="30" clip-path="url('#clip-path-corners-dot-color-1-0')" fill="#000000"/><rect x="5" y="225" height="70" width="70" clip-path="url('#clip-path-corners-square-color-0-1')" fill="#000000"/><rect x="25" y="245" height="30" width="30" clip-path="url('#clip-path-corners-dot-color-0-1')" fill="#000000"/></svg>